<?xml version="1.0" encoding="UTF-8"?>
<svg width="3300px" height="2200px" viewBox="0 0 3300 2200" version="1.1" xmlns="http://www.w3.org/2000/svg" xmlns:xlink="http://www.w3.org/1999/xlink">
    <title>waterDrop</title>
    <g id="Page-1" stroke="none" stroke-width="1" fill="none" fill-rule="evenodd">
        <g id="waterDrop">
            <g id="Notes">
                <rect id="artboard" fill="#FFFFFF" fill-rule="nonzero" x="0" y="0" width="3300" height="2200"></rect>
                <line x1="263" y1="292" x2="3036" y2="292" id="Path" stroke="#000000" stroke-width="0.5"></line>
                <text id="Weight/Scale-Variations" fill="#000000" fill-rule="nonzero" font-family="Helvetica-Bold, Helvetica" font-size="13" font-weight="bold">
                    <tspan x="263" y="322">Weight/Scale Variations</tspan>
                </text>
                <text id="Ultralight" fill="#000000" fill-rule="nonzero" font-family="Helvetica" font-size="13" font-weight="normal">
                    <tspan x="533.711" y="322">Ultralight</tspan>
                </text>
                <text id="Thin" fill="#000000" fill-rule="nonzero" font-family="Helvetica" font-size="13" font-weight="normal">
                    <tspan x="843.422" y="322">Thin</tspan>
                </text>
                <text id="Light" fill="#000000" fill-rule="nonzero" font-family="Helvetica" font-size="13" font-weight="normal">
                    <tspan x="1138.63" y="322">Light</tspan>
                </text>
                <text id="Regular" fill="#000000" fill-rule="nonzero" font-family="Helvetica" font-size="13" font-weight="normal">
                    <tspan x="1426.84" y="322">Regular</tspan>
                </text>
                <text id="Medium" fill="#000000" fill-rule="nonzero" font-family="Helvetica" font-size="13" font-weight="normal">
                    <tspan x="1723.06" y="322">Medium</tspan>
                </text>
                <text id="Semibold" fill="#000000" fill-rule="nonzero" font-family="Helvetica" font-size="13" font-weight="normal">
                    <tspan x="2015.77" y="322">Semibold</tspan>
                </text>
                <text id="Bold" fill="#000000" fill-rule="nonzero" font-family="Helvetica" font-size="13" font-weight="normal">
                    <tspan x="2326.48" y="322">Bold</tspan>
                </text>
                <text id="Heavy" fill="#000000" fill-rule="nonzero" font-family="Helvetica" font-size="13" font-weight="normal">
                    <tspan x="2618.19" y="322">Heavy</tspan>
                </text>
                <text id="Black" fill="#000000" fill-rule="nonzero" font-family="Helvetica" font-size="13" font-weight="normal">
                    <tspan x="2917.4" y="322">Black</tspan>
                </text>
                <line x1="263" y1="1903" x2="3036" y2="1903" id="Path" stroke="#000000" stroke-width="0.5"></line>
                <g id="Group" transform="translate(264.000000, 1918.000000)" fill="#000000" fill-rule="nonzero">
                    <path d="M8.24805,15.830078 C12.5547,15.830078 16.1387,12.25586 16.1387,7.94922 C16.1387,3.6426 12.5449,0.0684 8.23828,0.0684 C3.94141,0.0684 0.36719,3.6426 0.36719,7.94922 C0.36719,12.25586 3.95117,15.830078 8.24805,15.830078 Z M8.24805,14.345703 C4.70312,14.345703 1.87109,11.50391 1.87109,7.94922 C1.87109,4.3945 4.69336,1.5527 8.23828,1.5527 C11.793,1.5527 14.6348,4.3945 14.6445252,7.94922 C14.6543,11.50391 11.8027,14.345703 8.24805,14.345703 Z M8.22852,11.57227 C8.69727,11.57227 8.9707,11.25977 8.9707,10.74219 L8.9707,8.68164 L11.1973,8.68164 C11.6953,8.68164 12.0371,8.42773 12.0371,7.95898 C12.0371,7.48047 11.7148,7.2168 11.1973,7.2168 L8.9707,7.2168 L8.9707,4.9902 C8.9707,4.4727 8.69727,4.1504 8.22852,4.1504 C7.75977,4.1504 7.50586,4.4922 7.50586,4.9902 L7.50586,7.2168 L5.29883,7.2168 C4.78125,7.2168 4.44922,7.48047 4.44922,7.95898 C4.44922,8.42773 4.80078,8.68164 5.29883,8.68164 L7.50586,8.68164 L7.50586,10.74219 C7.50586,11.24023 7.75977,11.57227 8.22852,11.57227 Z" id="Shape"></path>
                </g>
                <g id="Group" transform="translate(282.506000, 1915.000000)" fill="#000000" fill-rule="nonzero">
                    <path d="M10.709,20.91016 C16.1582,20.91016 20.6699,16.39844 20.6699,10.94922 C20.6699,5.5098 16.1484,0.9883 10.6992,0.9883 C5.25977,0.9883 0.74805,5.5098 0.74805,10.94922 C0.74805,16.39844 5.26953,20.91016 10.709,20.91016 Z M10.709,19.25 C6.09961,19.25 2.41797,15.55859 2.41797,10.94922 C2.41797,6.3496 6.08984,2.6484 10.6992,2.6484 C15.3086,2.6484 19,6.3496 19.009819,10.94922 C19.0195,15.55859 15.3184,19.25 10.709,19.25 Z M10.6895,15.58789 C11.207,15.58789 11.5195,15.22656 11.5195,14.66016 L11.5195,11.76953 L14.5762,11.76953 C15.123,11.76953 15.5039,11.48633 15.5039,10.96875 C15.5039,10.44141 15.1426,10.13867 14.5762,10.13867 L11.5195,10.13867 L11.5195,7.0723 C11.5195,6.4961 11.207,6.1445 10.6895,6.1445 C10.1719,6.1445 9.8789,6.5156 9.8789,7.0723 L9.8789,10.13867 L6.83203,10.13867 C6.26562,10.13867 5.89453,10.44141 5.89453,10.96875 C5.89453,11.48633 6.28516,11.76953 6.83203,11.76953 L9.8789,11.76953 L9.8789,14.66016 C9.8789,15.20703 10.1719,15.58789 10.6895,15.58789 Z" id="Shape"></path>
                </g>
                <g id="Group" transform="translate(306.924000, 1913.000000)" fill="#000000" fill-rule="nonzero">
                    <path d="M12.9707,25.67383 C19.9336,25.67383 25.6953,19.921875 25.6953,12.95898 C25.6953,5.9961 19.9238,0.2441 12.9609,0.2441 C6.00781,0.2441 0.25586,5.9961 0.25586,12.95898 C0.25586,19.921875 6.01758,25.67383 12.9707,25.67383 Z M12.9707,23.85742 C6.93555,23.85742 2.08203,18.99414 2.08203,12.95898 C2.08203,6.9238 6.92578,2.0605 12.9609,2.0605 C19.0059,2.0605 23.8594,6.9238 23.8691148,12.95898 C23.8789,18.99414 19.0156,23.85742 12.9707,23.85742 Z M12.9512,18.93555 C13.5176,18.93555 13.8691,18.54492 13.8691,17.93945 L13.8691,13.86719 L18.1074,13.86719 C18.6934,13.86719 19.1133,13.53516 19.1133,12.97852 C19.1133,12.40234 18.7227,12.06055 18.1074,12.06055 L13.8691,12.06055 L13.8691,7.8125 C13.8691,7.1973 13.5176,6.8066 12.9512,6.8066 C12.3848,6.8066 12.0625,7.2168 12.0625,7.8125 L12.0625,12.06055 L7.83398,12.06055 C7.21875,12.06055 6.80859,12.40234 6.80859,12.97852 C6.80859,13.53516 7.23828,13.86719 7.83398,13.86719 L12.0625,13.86719 L12.0625,17.93945 C12.0625,18.52539 12.3848,18.93555 12.9512,18.93555 Z" id="Shape"></path>
                </g>
                <text id="Design-Variations" fill="#000000" fill-rule="nonzero" font-family="Helvetica-Bold, Helvetica" font-size="13" font-weight="bold">
                    <tspan x="263" y="1953">Design Variations</tspan>
                </text>
                <text id="Symbols-are-supported-in-up-to-nine-weights-and-three-scales." fill="#000000" fill-rule="nonzero" font-family="Helvetica" font-size="13" font-weight="normal">
                    <tspan x="263" y="1971">Symbols are supported in up to nine weights and three scales.</tspan>
                </text>
                <text id="For-optimal-layout-with-text-and-other-symbols,-vertically-align" fill="#000000" fill-rule="nonzero" font-family="Helvetica" font-size="13" font-weight="normal">
                    <tspan x="263" y="1989">For optimal layout with text and other symbols, vertically align</tspan>
                </text>
                <text id="symbols-with-the-adjacent-text." fill="#000000" fill-rule="nonzero" font-family="Helvetica" font-size="13" font-weight="normal">
                    <tspan x="263" y="2007">symbols with the adjacent text.</tspan>
                </text>
                <rect id="Rectangle" fill="#00AEEF" fill-rule="nonzero" opacity="0.4" x="776" y="1919" width="3" height="14"></rect>
                <g id="Group" transform="translate(779.000000, 1918.000000)" fill="#000000" fill-rule="nonzero">
                    <path d="M10.5273,15 L12.373,15 L7.17773,0.9082 L5.43945,0.9082 L0.244141,15 L2.08984,15 L3.50586,10.9668 L9.11133,10.9668 L10.5273,15 Z M6.2793,3.0469 L6.33789,3.0469 L8.59375,9.47266 L4.02344,9.47266 L6.2793,3.0469 Z" id="Shape"></path>
                </g>
                <rect id="Rectangle" fill="#00AEEF" fill-rule="nonzero" opacity="0.4" x="791.617" y="1919" width="3" height="14"></rect>
                <text id="Margins" fill="#000000" fill-rule="nonzero" font-family="Helvetica-Bold, Helvetica" font-size="13" font-weight="bold">
                    <tspan x="776" y="1953">Margins</tspan>
                </text>
                <text id="Leading-and-trailing-margins-on-the-left-and-right-side-of-each-symbol" fill="#000000" fill-rule="nonzero" font-family="Helvetica" font-size="13" font-weight="normal">
                    <tspan x="776" y="1971">Leading and trailing margins on the left and right side of each symbol</tspan>
                </text>
                <text id="can-be-adjusted-by-modifying-the-width-of-the-blue-rectangles." fill="#000000" fill-rule="nonzero" font-family="Helvetica" font-size="13" font-weight="normal">
                    <tspan x="776" y="1989">can be adjusted by modifying the width of the blue rectangles.</tspan>
                </text>
                <text id="Modifications-are-automatically-applied-proportionally-to-all" fill="#000000" fill-rule="nonzero" font-family="Helvetica" font-size="13" font-weight="normal">
                    <tspan x="776" y="2007">Modifications are automatically applied proportionally to all</tspan>
                </text>
                <text id="scales-and-weights." fill="#000000" fill-rule="nonzero" font-family="Helvetica" font-size="13" font-weight="normal">
                    <tspan x="776" y="2025">scales and weights.</tspan>
                </text>
                <g id="Group" transform="translate(1291.000000, 1915.000000)" fill="#000000" fill-rule="nonzero">
                    <path d="M0.83203,21.11523 L2.375,22.6582 C3.22461,23.48828 4.19141,23.41992 5.06055,22.46289 L15.2754,11.33984 C15.7051,11.63281 16.0957,11.62305 16.5645,11.52539 L17.6094,11.31055 L18.3027,12.00391 L18.2539,12.52148 C18.1855,13.04883 18.3516,13.46875 18.8496,13.9668 L19.6602,14.77734 C20.168,15.28516 20.8223,15.31445 21.3008,14.83594 L24.5527,11.58398 C25.0312,11.10547 25.0117,10.45117 24.5039,9.94336 L23.6836,9.12305 C23.1855,8.625 22.7754,8.44922 22.2383,8.52734 L21.7109,8.58594 L21.0566,7.9219 L21.3398,6.7793 C21.4863,6.2129 21.3398,5.7441 20.7148,5.1387 L18.3027,2.7461 C14.7578,-0.7793 10.2266,-0.6719 7.11133,2.4629 C6.69141,2.8926 6.64258,3.4785 6.91602,3.9082 C7.15039,4.2793 7.62891,4.5039 8.2734,4.3379 C9.7871,3.957 11.3008,4.0742 12.7852,5.0801 L12.1602,6.6621 C11.9258,7.248 11.9453,7.7266 12.1797,8.16602 L1.01758,18.439453 C0.08008,19.30859 -0.02734,20.25586 0.83203,21.11523 Z M8.6738,2.8535 C11.3398,0.8613 14.6504,1.1738 17.0527,3.5859 L19.6797,6.1934 C19.9141,6.4277 19.9434,6.6133 19.8848,6.9062 L19.5039,8.46875 L21.0762,10.04102 L22.043,9.95312 C22.3262,9.92383 22.4141,9.94336 22.6387,10.16797 L23.2637,10.79297 L20.5098,13.53711 L19.8848,12.92188 C19.6602,12.69727 19.6406,12.59961 19.6699,12.31641 L19.7578,11.35938 L18.1953,9.79688 L16.5742,10.10938 C16.291,10.16797 16.1445,10.16797 15.9102,9.92383 L13.7324,7.7461 C13.5078,7.5117 13.4785,7.375 13.6055,7.0527 L14.5527,4.7773 C12.9512,3.2441 10.8418,2.3945 8.8008,3.0488 C8.7129,3.0781 8.6445,3.0586 8.6152,3.0195 C8.5859,2.9707 8.5859,2.9219 8.6738,2.8535 Z M2.10156,20.41211 C1.61328,19.91406 1.78906,19.61133 2.12109,19.30859 L13.0781,9.19141 L14.3086,10.42188 L4.15234,21.34961 C3.84961,21.68164 3.46875,21.7793 3.06836,21.37891 L2.10156,20.41211 Z" id="Shape"></path>
                </g>
                <text id="Exporting" fill="#000000" fill-rule="nonzero" font-family="Helvetica-Bold, Helvetica" font-size="13" font-weight="bold">
                    <tspan x="1289" y="1953">Exporting</tspan>
                </text>
                <text id="Symbols-should-be-outlined-when-exporting-to-ensure-the" fill="#000000" fill-rule="nonzero" font-family="Helvetica" font-size="13" font-weight="normal">
                    <tspan x="1289" y="1971">Symbols should be outlined when exporting to ensure the</tspan>
                </text>
                <text id="design-is-preserved-when-submitting-to-Xcode." fill="#000000" fill-rule="nonzero" font-family="Helvetica" font-size="13" font-weight="normal">
                    <tspan x="1289" y="1989">design is preserved when submitting to Xcode.</tspan>
                </text>
                <text id="template-version" fill="#000000" fill-rule="nonzero" font-family="Helvetica" font-size="13" font-weight="normal">
                    <tspan x="2952" y="1933">Template v.1.0</tspan>
                </text>
                <text id="Generated-from-thermometer" fill="#000000" fill-rule="nonzero" font-family="Helvetica" font-size="13" font-weight="normal">
                    <tspan x="2867" y="1951">Generated from thermometer</tspan>
                </text>
                <text id="Typeset-at-100-points" fill="#000000" fill-rule="nonzero" font-family="Helvetica" font-size="13" font-weight="normal">
                    <tspan x="2912" y="1969">Typeset at 100 points</tspan>
                </text>
                <text id="Small" fill="#000000" fill-rule="nonzero" font-family="Helvetica" font-size="13" font-weight="normal">
                    <tspan x="263" y="726">Small</tspan>
                </text>
                <text id="Medium" fill="#000000" fill-rule="nonzero" font-family="Helvetica" font-size="13" font-weight="normal">
                    <tspan x="263" y="1156">Medium</tspan>
                </text>
                <text id="Large" fill="#000000" fill-rule="nonzero" font-family="Helvetica" font-size="13" font-weight="normal">
                    <tspan x="263" y="1586">Large</tspan>
                </text>
            </g>
            <g id="Guides" transform="translate(263.000000, 625.000000)">
                <g id="H-reference" transform="translate(76.000000, 0.000000)" fill="#27AAE1" fill-rule="nonzero">
                    <path d="M54.9316,71 L57.666,71 L30.5664,0.541 L28.0762,0.541 L0.976562,71 L3.66211,71 L12.9395,46.5371 L45.7031,46.5371 L54.9316,71 Z M29.1992,3.9102 L29.4434,3.9102 L44.8242,44.291 L13.8184,44.291 L29.1992,3.9102 Z" id="Shape"></path>
                </g>
                <line x1="0" y1="71" x2="2773" y2="71" id="Baseline-S" stroke="#27AAE1" stroke-width="0.577"></line>
                <line x1="0" y1="0.541" x2="2773" y2="0.541" id="Capline-S" stroke="#27AAE1" stroke-width="0.577"></line>
                <g id="H-reference" transform="translate(76.000000, 430.000000)" fill="#27AAE1" fill-rule="nonzero">
                    <path d="M54.9316,71 L57.666,71 L30.5664,0.541 L28.0762,0.541 L0.976562,71 L3.66211,71 L12.9395,46.5371 L45.7031,46.5371 L54.9316,71 Z M29.1992,3.9102 L29.4434,3.9102 L44.8242,44.291 L13.8184,44.291 L29.1992,3.9102 Z" id="Shape"></path>
                </g>
                <line x1="0" y1="501" x2="2773" y2="501" id="Baseline-M" stroke="#27AAE1" stroke-width="0.577"></line>
                <line x1="0" y1="430.54" x2="2773" y2="430.54" id="Capline-M" stroke="#27AAE1" stroke-width="0.577"></line>
                <g id="H-reference" transform="translate(76.000000, 860.000000)" fill="#27AAE1" fill-rule="nonzero">
                    <path d="M54.9316,71 L57.666,71 L30.5664,0.541 L28.0762,0.541 L0.976562,71 L3.66211,71 L12.9395,46.5371 L45.7031,46.5371 L54.9316,71 Z M29.1992,3.9102 L29.4434,3.9102 L44.8242,44.291 L13.8184,44.291 L29.1992,3.9102 Z" id="Shape"></path>
                </g>
                <line x1="0" y1="931" x2="2773" y2="931" id="Baseline-L" stroke="#27AAE1" stroke-width="0.577"></line>
                <line x1="0" y1="860.54" x2="2773" y2="860.54" id="Capline-L" stroke="#27AAE1" stroke-width="0.577"></line>
                <rect id="left-margin" fill="#00AEEF" fill-rule="nonzero" opacity="0.4" x="1146.34" y="405.79" width="8.74023" height="119.336"></rect>
                <rect id="right-margin" fill="#00AEEF" fill-rule="nonzero" opacity="0.4" x="1218.61" y="405.79" width="8.74023" height="119.336"></rect>
            </g>
            <g id="Symbols" transform="translate(515.000000, 626.000000)" fill="#000000" fill-rule="nonzero">
                <g id="Black-L" transform="translate(2375.070000, 839.000000)">
                    <path d="M42.3675775,1.1308184 C41.7494821,0.413121101 40.8466723,0 39.8963556,0 C38.9460389,0 38.0432291,0.413121101 37.4251336,1.1308184 C28.8416025,11.11256 0.854302326,45.6214058 0.854302326,71.1836136 C0.854302326,95.0044752 15.9391941,110 39.895,110 C63.8508059,110 78.9356977,95.0044752 78.9356977,71.1836136 C78.9356977,45.6214058 50.9483975,11.11256 42.3675775,1.1308184 Z M43.8716022,96.0759494 C42.7965536,96.0782966 41.7874226,95.5582799 41.165781,94.6816008 C40.5441394,93.8049218 40.3875448,92.680957 40.7458978,91.6678714 C41.2085214,90.3318007 42.4765506,89.4431579 43.8908967,89.4638364 C53.0058156,89.4441378 60.3900129,82.0634482 60.4097209,72.9528592 C60.3890326,71.5391851 61.2780977,70.2717582 62.6148034,69.8093543 C63.6283705,69.4511716 64.7528694,69.6076918 65.6299651,70.2290381 C66.5070608,70.8503844 67.0273247,71.859036 67.0249764,72.9335739 C67.0112958,85.7090856 56.6531856,96.0622753 43.8716022,96.0759494 Z" id="Shape"></path>
                </g>
                <g id="Heavy-L" transform="translate(2078.560000, 840.000000)">
                    <path d="M41.9174612,1.1308184 C41.2993658,0.413121101 40.396556,0 39.4462393,0 C38.4959226,0 37.5931128,0.413121101 36.9750174,1.1308184 C28.3914862,11.11256 0.404186047,45.6214058 0.404186047,71.1836136 C0.404186047,95.0044752 15.4890778,110 39.4448837,110 C63.4006896,110 78.4855814,95.0044752 78.4855814,71.1836136 C78.4855814,45.6214058 50.4982813,11.11256 41.9174612,1.1308184 Z M43.4214859,96.0759494 C42.3464373,96.0782966 41.3373063,95.5582799 40.7156648,94.6816008 C40.0940232,93.8049218 39.9374285,92.680957 40.2957815,91.6678714 C40.7584052,90.3318007 42.0264344,89.4431579 43.4407804,89.4638364 C52.5556993,89.4441378 59.9398966,82.0634482 59.9596046,72.9528592 C59.9389163,71.5391851 60.8279815,70.2717582 62.1646871,69.8093543 C63.1782542,69.4511716 64.3027531,69.6076918 65.1798488,70.2290381 C66.0569446,70.8503844 66.5772084,71.859036 66.5748601,72.9335739 C66.5611795,85.7090856 56.2030693,96.0622753 43.4214859,96.0759494 Z" id="Shape"></path>
                </g>
                <g id="Bold-L" transform="translate(1781.310000, 841.000000)">
                    <path d="M42.1471124,1.1308184 C41.5290169,0.413121101 40.6262071,0 39.6758905,0 C38.7255738,0 37.822764,0.413121101 37.2046685,1.1308184 C28.6211374,11.11256 0.633837209,45.6214058 0.633837209,71.1836136 C0.633837209,95.0044752 15.718729,110 39.6745349,110 C63.6303408,110 78.7152326,95.0044752 78.7152326,71.1836136 C78.7152326,45.6214058 50.7279324,11.11256 42.1471124,1.1308184 Z M43.6511371,96.0759494 C42.5760884,96.0782966 41.5669575,95.5582799 40.9453159,94.6816008 C40.3236743,93.8049218 40.1670797,92.680957 40.5254326,91.6678714 C40.9880563,90.3318007 42.2560855,89.4431579 43.6704316,89.4638364 C52.7853505,89.4441378 60.1695478,82.0634482 60.1892558,72.9528592 C60.1685675,71.5391851 61.0576326,70.2717582 62.3943383,69.8093543 C63.4079054,69.4511716 64.5324043,69.6076918 65.4095,70.2290381 C66.2865957,70.8503844 66.8068596,71.859036 66.8045112,72.9335739 C66.7908307,85.7090856 56.4327205,96.0622753 43.6511371,96.0759494 Z" id="Shape"></path>
                </g>
                <g id="Semibold-L" transform="translate(1485.310000, 842.000000)">
                    <path d="M42.1471124,1.1308184 C41.5290169,0.413121101 40.6262071,0 39.6758905,0 C38.7255738,0 37.822764,0.413121101 37.2046685,1.1308184 C28.6211374,11.11256 0.633837209,45.6214058 0.633837209,71.1836136 C0.633837209,95.0044752 15.718729,110 39.6745349,110 C63.6303408,110 78.7152326,95.0044752 78.7152326,71.1836136 C78.7152326,45.6214058 50.7279324,11.11256 42.1471124,1.1308184 Z M43.6511371,96.0759494 C42.5760884,96.0782966 41.5669575,95.5582799 40.9453159,94.6816008 C40.3236743,93.8049218 40.1670797,92.680957 40.5254326,91.6678714 C40.9880563,90.3318007 42.2560855,89.4431579 43.6704316,89.4638364 C52.7853505,89.4441378 60.1695478,82.0634482 60.1892558,72.9528592 C60.1685675,71.5391851 61.0576326,70.2717582 62.3943383,69.8093543 C63.4079054,69.4511716 64.5324043,69.6076918 65.4095,70.2290381 C66.2865957,70.8503844 66.8068596,71.859036 66.8045112,72.9335739 C66.7908307,85.7090856 56.4327205,96.0622753 43.6511371,96.0759494 Z" id="Shape"></path>
                </g>
                <g id="Medium-L" transform="translate(1188.890000, 842.000000)">
                    <path d="M41.6143217,1.1308184 C40.9962262,0.413121101 40.0934164,0 39.1430998,0 C38.1927831,0 37.2899733,0.413121101 36.6718778,1.1308184 C28.0883467,11.11256 0.101046512,45.6214058 0.101046512,71.1836136 C0.101046512,95.0044752 15.1859383,110 39.1417442,110 C63.0975501,110 78.1824419,95.0044752 78.1824419,71.1836136 C78.1824419,45.6214058 50.1951417,11.11256 41.6143217,1.1308184 Z M43.1183464,96.0759494 C42.0432977,96.0782966 41.0341668,95.5582799 40.4125252,94.6816008 C39.7908836,93.8049218 39.634289,92.680957 39.9926419,91.6678714 C40.4552656,90.3318007 41.7232948,89.4431579 43.1376409,89.4638364 C52.2525598,89.4441378 59.6367571,82.0634482 59.6564651,72.9528592 C59.6357768,71.5391851 60.5248419,70.2717582 61.8615476,69.8093543 C62.8751147,69.4511716 63.9996136,69.6076918 64.8767093,70.2290381 C65.753805,70.8503844 66.2740689,71.859036 66.2717205,72.9335739 C66.25804,85.7090856 55.8999298,96.0622753 43.1183464,96.0759494 Z" id="Shape"></path>
                </g>
                <g id="Regular-L" transform="translate(891.870000, 843.000000)">
                    <path d="M41.6326938,1.1308184 C41.0145983,0.413121101 40.1117885,0 39.1614719,0 C38.2111552,0 37.3083454,0.413121101 36.6902499,1.1308184 C28.1067188,11.11256 0.119418605,45.6214058 0.119418605,71.1836136 C0.119418605,95.0044752 15.2043104,110 39.1601163,110 C63.1159222,110 78.200814,95.0044752 78.200814,71.1836136 C78.200814,45.6214058 50.2135138,11.11256 41.6326938,1.1308184 Z M43.1367185,96.0759494 C42.0616698,96.0782966 41.0525389,95.5582799 40.4308973,94.6816008 C39.8092557,93.8049218 39.652661,92.680957 40.011014,91.6678714 C40.4736377,90.3318007 41.7416669,89.4431579 43.1560129,89.4638364 C52.2709319,89.4441378 59.6551292,82.0634482 59.6748372,72.9528592 C59.6541488,71.5391851 60.543214,70.2717582 61.8799197,69.8093543 C62.8934868,69.4511716 64.0179857,69.6076918 64.8950814,70.2290381 C65.7721771,70.8503844 66.292441,71.859036 66.2900926,72.9335739 C66.2764121,85.7090856 55.9183019,96.0622753 43.1367185,96.0759494 Z" id="Shape"></path>
                </g>
                <g id="Light-L" transform="translate(596.000000, 844.000000)">
                    <path d="M41.5904115,1.1308184 C40.9727649,0.413121101 40.0706108,0 39.1209842,0 C38.1713577,0 37.2692035,0.413121101 36.6515569,1.1308184 C28.0742593,11.11256 0.107283951,45.6214058 0.107283951,71.1836136 C0.107283951,95.0044752 15.1812209,110 39.1196296,110 C63.0580384,110 78.1319753,95.0044752 78.1319753,71.1836136 C78.1319753,45.6214058 50.165,11.11256 41.5904115,1.1308184 Z M43.093344,96.0759494 C42.019076,96.0782966 41.0106779,95.5582799 40.3894878,94.6816008 C39.7682977,93.8049218 39.6118167,92.680957 39.9699095,91.6678714 C40.4321972,90.3318007 41.6993055,89.4431579 43.1126244,89.4638364 C52.2209239,89.4441378 59.5997587,82.0634482 59.6194524,72.9528592 C59.5987791,71.5391851 60.4871986,70.2717582 61.8229335,69.8093543 C62.8357646,69.4511716 63.9594469,69.6076918 64.8359056,70.2290381 C65.7123644,70.8503844 66.2322504,71.859036 66.2299037,72.9335739 C66.2162331,85.7090856 55.8656452,96.0622753 43.093344,96.0759494 Z" id="Shape"></path>
                </g>
                <g id="Thin-L" transform="translate(298.000000, 844.000000)">
                    <path d="M41.9964612,1.1308184 C41.3783658,0.413121101 40.475556,0 39.5252393,0 C38.5749226,0 37.6721128,0.413121101 37.0540174,1.1308184 C28.4704862,11.11256 0.483186047,45.6214058 0.483186047,71.1836136 C0.483186047,95.0044752 15.5680778,110 39.5238837,110 C63.4796896,110 78.5645814,95.0044752 78.5645814,71.1836136 C78.5645814,45.6214058 50.5772812,11.11256 41.9964612,1.1308184 Z M43.5004859,96.0759494 C42.4254373,96.0782966 41.4163063,95.5582799 40.7946648,94.6816008 C40.1730232,93.8049218 40.0164285,92.680957 40.3747815,91.6678714 C40.8374052,90.3318007 42.1054344,89.4431579 43.5197804,89.4638364 C52.6346993,89.4441378 60.0188966,82.0634482 60.0386046,72.9528592 C60.0179163,71.5391851 60.9069815,70.2717582 62.2436871,69.8093543 C63.2572542,69.4511716 64.3817531,69.6076918 65.2588488,70.2290381 C66.1359446,70.8503844 66.6562084,71.859036 66.6538601,72.9335739 C66.6401795,85.7090856 56.2820693,96.0622753 43.5004859,96.0759494 Z" id="Shape"></path>
                </g>
                <g id="Ultralight-L" transform="translate(0.000000, 844.000000)">
                    <path d="M41.5729845,1.1308184 C40.954889,0.413121101 40.0520792,0 39.1017626,0 C38.1514459,0 37.2486361,0.413121101 36.6305406,1.1308184 C28.0470094,11.11256 0.0597093023,45.6214058 0.0597093023,71.1836136 C0.0597093023,95.0044752 15.1446011,110 39.100407,110 C63.0562129,110 78.1411047,95.0044752 78.1411047,71.1836136 C78.1411047,45.6214058 50.1538045,11.11256 41.5729845,1.1308184 Z M43.0770092,96.0759494 C42.0019605,96.0782966 40.9928296,95.5582799 40.371188,94.6816008 C39.7495464,93.8049218 39.5929517,92.680957 39.9513047,91.6678714 C40.4139284,90.3318007 41.6819576,89.4431579 43.0963036,89.4638364 C52.2112226,89.4441378 59.5954199,82.0634482 59.6151279,72.9528592 C59.5944395,71.5391851 60.4835047,70.2717582 61.8202104,69.8093543 C62.8337775,69.4511716 63.9582764,69.6076918 64.8353721,70.2290381 C65.7124678,70.8503844 66.2327317,71.859036 66.2303833,72.9335739 C66.2167028,85.7090856 55.8585926,96.0622753 43.0770092,96.0759494 Z" id="Shape"></path>
                </g>
                <g id="Black-M" transform="translate(2393.000000, 422.000000)">
                    <path d="M32.3,0.873814217 C31.8250376,0.319229942 31.1312925,0 30.4010417,0 C29.6707909,0 28.9770457,0.319229942 28.5020833,0.873814217 C21.90625,8.58697818 0.4,35.2529045 0.4,55.0055196 C0.4,73.412549 11.9916667,85 30.4,85 C48.8083333,85 60.4,73.412549 60.4,55.0055196 C60.4,35.2529045 38.89375,8.58697818 32.3,0.873814217 Z M33.455736,74.2405063 C32.6296376,74.2423201 31.8541922,73.840489 31.3765049,73.1630552 C30.8988175,72.4856214 30.7784856,71.6171032 31.0538544,70.8342643 C31.4093478,69.801846 32.3837381,69.1151675 33.4705624,69.1311463 C40.4747295,69.1159246 46.14896,63.4126645 46.1641042,56.372664 C46.1482067,55.2802794 46.8313901,54.3009041 47.8585533,53.943592 C48.6374076,53.6668144 49.501505,53.7877619 50.1754907,54.2678931 C50.8494764,54.7480243 51.2492622,55.5274369 51.2474576,56.3577617 C51.2369451,66.229748 43.277474,74.22994 33.455736,74.2405063 Z" id="Shape"></path>
                </g>
                <g id="Heavy-M" transform="translate(1201.000000, 423.000000)">
                    <path d="M32.04,0.873814217 C31.5650376,0.319229942 30.8712925,0 30.1410417,0 C29.4107909,0 28.7170457,0.319229942 28.2420833,0.873814217 C21.64625,8.58697818 0.14,35.2529045 0.14,55.0055196 C0.14,73.412549 11.7316667,85 30.14,85 C48.5483333,85 60.14,73.412549 60.14,55.0055196 C60.14,35.2529045 38.63375,8.58697818 32.04,0.873814217 Z M33.195736,74.2405063 C32.3696376,74.2423201 31.5941922,73.840489 31.1165049,73.1630552 C30.6388175,72.4856214 30.5184856,71.6171032 30.7938544,70.8342643 C31.1493478,69.801846 32.1237381,69.1151675 33.2105624,69.1311463 C40.2147295,69.1159246 45.88896,63.4126645 45.9041042,56.372664 C45.8882067,55.2802794 46.5713901,54.3009041 47.5985533,53.943592 C48.3774076,53.6668144 49.241505,53.7877619 49.9154907,54.2678931 C50.5894764,54.7480243 50.9892622,55.5274369 50.9874576,56.3577617 C50.9769451,66.229748 43.017474,74.22994 33.195736,74.2405063 Z" id="Shape"></path>
                </g>
                <g id="Bold-M" transform="translate(1797.000000, 422.000000)">
                    <path d="M32.58,0.873814217 C32.1050376,0.319229942 31.4112925,0 30.6810417,0 C29.9507909,0 29.2570457,0.319229942 28.7820833,0.873814217 C22.18625,8.58697818 0.68,35.2529045 0.68,55.0055196 C0.68,73.412549 12.2716667,85 30.68,85 C49.0883333,85 60.68,73.412549 60.68,55.0055196 C60.68,35.2529045 39.17375,8.58697818 32.58,0.873814217 Z M33.735736,74.2405063 C32.9096376,74.2423201 32.1341922,73.840489 31.6565049,73.1630552 C31.1788175,72.4856214 31.0584856,71.6171032 31.3338544,70.8342643 C31.6893478,69.801846 32.6637381,69.1151675 33.7505624,69.1311463 C40.7547295,69.1159246 46.42896,63.4126645 46.4441042,56.372664 C46.4282067,55.2802794 47.1113901,54.3009041 48.1385533,53.943592 C48.9174076,53.6668144 49.781505,53.7877619 50.4554907,54.2678931 C51.1294764,54.7480243 51.5292622,55.5274369 51.5274576,56.3577617 C51.5169451,66.229748 43.557474,74.22994 33.735736,74.2405063 Z" id="Shape"></path>
                </g>
                <g id="Semibold-M" transform="translate(1499.000000, 422.000000)">
                    <path d="M32.77,0.873814217 C32.2950376,0.319229942 31.6012925,0 30.8710417,0 C30.1407909,0 29.4470457,0.319229942 28.9720833,0.873814217 C22.37625,8.58697818 0.87,35.2529045 0.87,55.0055196 C0.87,73.412549 12.4616667,85 30.87,85 C49.2783333,85 60.87,73.412549 60.87,55.0055196 C60.87,35.2529045 39.36375,8.58697818 32.77,0.873814217 Z M33.925736,74.2405063 C33.0996376,74.2423201 32.3241922,73.840489 31.8465049,73.1630552 C31.3688175,72.4856214 31.2484856,71.6171032 31.5238544,70.8342643 C31.8793478,69.801846 32.8537381,69.1151675 33.9405624,69.1311463 C40.9447295,69.1159246 46.61896,63.4126645 46.6341042,56.372664 C46.6182067,55.2802794 47.3013901,54.3009041 48.3285533,53.943592 C49.1074076,53.6668144 49.971505,53.7877619 50.6454907,54.2678931 C51.3194764,54.7480243 51.7192622,55.5274369 51.7174576,56.3577617 C51.7069451,66.229748 43.747474,74.22994 33.925736,74.2405063 Z" id="Shape"></path>
                </g>
                <g id="Medium-M" transform="translate(2095.000000, 422.000000)">
                    <path d="M32.34,0.873814217 C31.8650376,0.319229942 31.1712925,0 30.4410417,0 C29.7107909,0 29.0170457,0.319229942 28.5420833,0.873814217 C21.94625,8.58697818 0.44,35.2529045 0.44,55.0055196 C0.44,73.412549 12.0316667,85 30.44,85 C48.8483333,85 60.44,73.412549 60.44,55.0055196 C60.44,35.2529045 38.93375,8.58697818 32.34,0.873814217 Z M33.495736,74.2405063 C32.6696376,74.2423201 31.8941922,73.840489 31.4165049,73.1630552 C30.9388175,72.4856214 30.8184856,71.6171032 31.0938544,70.8342643 C31.4493478,69.801846 32.4237381,69.1151675 33.5105624,69.1311463 C40.5147295,69.1159246 46.18896,63.4126645 46.2041042,56.372664 C46.1882067,55.2802794 46.8713901,54.3009041 47.8985533,53.943592 C48.6774076,53.6668144 49.541505,53.7877619 50.2154907,54.2678931 C50.8894764,54.7480243 51.2892622,55.5274369 51.2874576,56.3577617 C51.2769451,66.229748 43.317474,74.22994 33.495736,74.2405063 Z" id="Shape"></path>
                </g>
                <g id="Regular-M" transform="translate(903.000000, 422.000000)">
                    <path d="M32.56,0.873814217 C32.0850376,0.319229942 31.3912925,0 30.6610417,0 C29.9307909,0 29.2370457,0.319229942 28.7620833,0.873814217 C22.16625,8.58697818 0.66,35.2529045 0.66,55.0055196 C0.66,73.412549 12.2516667,85 30.66,85 C49.0683333,85 60.66,73.412549 60.66,55.0055196 C60.66,35.2529045 39.15375,8.58697818 32.56,0.873814217 Z M33.715736,74.2405063 C32.8896376,74.2423201 32.1141922,73.840489 31.6365049,73.1630552 C31.1588175,72.4856214 31.0384856,71.6171032 31.3138544,70.8342643 C31.6693478,69.801846 32.6437381,69.1151675 33.7305624,69.1311463 C40.7347295,69.1159246 46.40896,63.4126645 46.4241042,56.372664 C46.4082067,55.2802794 47.0913901,54.3009041 48.1185533,53.943592 C48.8974076,53.6668144 49.761505,53.7877619 50.4354907,54.2678931 C51.1094764,54.7480243 51.5092622,55.5274369 51.5074576,56.3577617 C51.4969451,66.229748 43.537474,74.22994 33.715736,74.2405063 Z" id="Shape"></path>
                </g>
                <g id="Light-M" transform="translate(608.000000, 423.000000)">
                    <path d="M32.71,0.873814217 C32.2350376,0.319229942 31.5412925,0 30.8110417,0 C30.0807909,0 29.3870457,0.319229942 28.9120833,0.873814217 C22.31625,8.58697818 0.81,35.2529045 0.81,55.0055196 C0.81,73.412549 12.4016667,85 30.81,85 C49.2183333,85 60.81,73.412549 60.81,55.0055196 C60.81,35.2529045 39.30375,8.58697818 32.71,0.873814217 Z M33.865736,74.2405063 C33.0396376,74.2423201 32.2641922,73.840489 31.7865049,73.1630552 C31.3088175,72.4856214 31.1884856,71.6171032 31.4638544,70.8342643 C31.8193478,69.801846 32.7937381,69.1151675 33.8805624,69.1311463 C40.8847295,69.1159246 46.55896,63.4126645 46.5741042,56.372664 C46.5582067,55.2802794 47.2413901,54.3009041 48.2685533,53.943592 C49.0474076,53.6668144 49.911505,53.7877619 50.5854907,54.2678931 C51.2594764,54.7480243 51.6592622,55.5274369 51.6574576,56.3577617 C51.6469451,66.229748 43.687474,74.22994 33.865736,74.2405063 Z" id="Shape"></path>
                </g>
                <g id="Thin-M" transform="translate(310.000000, 423.000000)">
                    <path d="M32.367,0.873814217 C31.8920376,0.319229942 31.1982925,0 30.4680417,0 C29.7377909,0 29.0440457,0.319229942 28.5690833,0.873814217 C21.97325,8.58697818 0.467,35.2529045 0.467,55.0055196 C0.467,73.412549 12.0586667,85 30.467,85 C48.8753333,85 60.467,73.412549 60.467,55.0055196 C60.467,35.2529045 38.96075,8.58697818 32.367,0.873814217 Z M33.522736,74.2405063 C32.6966376,74.2423201 31.9211922,73.840489 31.4435049,73.1630552 C30.9658175,72.4856214 30.8454856,71.6171032 31.1208544,70.8342643 C31.4763478,69.801846 32.4507381,69.1151675 33.5375624,69.1311463 C40.5417295,69.1159246 46.21596,63.4126645 46.2311042,56.372664 C46.2152067,55.2802794 46.8983901,54.3009041 47.9255533,53.943592 C48.7044076,53.6668144 49.568505,53.7877619 50.2424907,54.2678931 C50.9164764,54.7480243 51.3162622,55.5274369 51.3144576,56.3577617 C51.3039451,66.229748 43.344474,74.22994 33.522736,74.2405063 Z" id="Shape"></path>
                </g>
                <g id="Ultralight-M" transform="translate(12.000000, 423.000000)">
                    <path d="M32.029,0.873814217 C31.5540376,0.319229942 30.8602925,0 30.1300417,0 C29.3997909,0 28.7060457,0.319229942 28.2310833,0.873814217 C21.63525,8.58697818 0.129,35.2529045 0.129,55.0055196 C0.129,73.412549 11.7206667,85 30.129,85 C48.5373333,85 60.129,73.412549 60.129,55.0055196 C60.129,35.2529045 38.62275,8.58697818 32.029,0.873814217 Z M33.184736,74.2405063 C32.3586376,74.2423201 31.5831922,73.840489 31.1055049,73.1630552 C30.6278175,72.4856214 30.5074856,71.6171032 30.7828544,70.8342643 C31.1383478,69.801846 32.1127381,69.1151675 33.1995624,69.1311463 C40.2037295,69.1159246 45.87796,63.4126645 45.8931042,56.372664 C45.8772067,55.2802794 46.5603901,54.3009041 47.5875533,53.943592 C48.3664076,53.6668144 49.230505,53.7877619 49.9044907,54.2678931 C50.5784764,54.7480243 50.9782622,55.5274369 50.9764576,56.3577617 C50.9659451,66.229748 43.006474,74.22994 33.184736,74.2405063 Z" id="Shape"></path>
                </g>
                <g id="Black-S" transform="translate(2392.310000, 0.000000)">
                    <path d="M25.6690196,0.719611708 C25.2965001,0.262895246 24.7523862,0 24.1796405,0 C23.6068948,0 23.062781,0.262895246 22.6902614,0.719611708 C17.5170588,7.07162909 0.649411765,29.0318037 0.649411765,45.2986632 C0.649411765,60.4573933 9.74091503,70 24.1788235,70 C38.616732,70 47.7082353,60.4573933 47.7082353,45.2986632 C47.7082353,29.0318037 30.8405882,7.07162909 25.6690196,0.719611708 Z M26.5754792,61.1392405 C25.9275589,61.1407342 25.3193664,60.8098145 24.9447097,60.2519278 C24.5700529,59.6940411 24.475675,58.9787908 24.6916505,58.3341 C24.9704689,57.4838732 25.7346965,56.9183732 26.5871078,56.9315323 C32.0805721,56.9189968 36.530949,52.2221943 36.5428268,46.4245468 C36.5303582,45.524936 37.0661883,44.7183916 37.8718065,44.4241346 C38.4826726,44.1962001 39.1603961,44.2958039 39.6890123,44.6912061 C40.2176285,45.0866083 40.531186,45.7284774 40.5297707,46.4122743 C40.5215256,54.5421454 34.2788031,61.1305388 26.5754792,61.1392405 Z" id="Shape"></path>
                </g>
                <g id="Heavy-S" transform="translate(2096.920000, 1.000000)">
                    <path d="M25.094902,0.719611708 C24.7223824,0.262895246 24.1782686,0 23.6055229,0 C23.0327772,0 22.4886633,0.262895246 22.1161438,0.719611708 C16.9429412,7.07162909 0.0752941176,29.0318037 0.0752941176,45.2986632 C0.0752941176,60.4573933 9.16679739,70 23.6047059,70 C38.0426144,70 47.1341176,60.4573933 47.1341176,45.2986632 C47.1341176,29.0318037 30.2664706,7.07162909 25.094902,0.719611708 Z M26.0013616,61.1392405 C25.3534412,61.1407342 24.7452488,60.8098145 24.370592,60.2519278 C23.9959353,59.6940411 23.9015574,58.9787908 24.1175329,58.3341 C24.3963512,57.4838732 25.1605789,56.9183732 26.0129902,56.9315323 C31.5064545,56.9189968 35.9568314,52.2221943 35.9687092,46.4245468 C35.9562406,45.524936 36.4920706,44.7183916 37.2976889,44.4241346 C37.9085549,44.1962001 38.5862784,44.2958039 39.1148947,44.6912061 C39.6435109,45.0866083 39.9570684,45.7284774 39.955653,46.4122743 C39.9474079,54.5421454 33.7046855,61.1305388 26.0013616,61.1392405 Z" id="Shape"></path>
                </g>
                <g id="Bold-S" transform="translate(1799.700000, 2.000000)">
                    <path d="M25.3019608,0.719611708 C24.9294412,0.262895246 24.3853274,0 23.8125817,0 C23.239836,0 22.6957222,0.262895246 22.3232026,0.719611708 C17.15,7.07162909 0.282352941,29.0318037 0.282352941,45.2986632 C0.282352941,60.4573933 9.37385621,70 23.8117647,70 C38.2496732,70 47.3411765,60.4573933 47.3411765,45.2986632 C47.3411765,29.0318037 30.4735294,7.07162909 25.3019608,0.719611708 Z M26.2084204,61.1392405 C25.5605001,61.1407342 24.9523076,60.8098145 24.5776509,60.2519278 C24.2029941,59.6940411 24.1086162,58.9787908 24.3245917,58.3341 C24.6034101,57.4838732 25.3676377,56.9183732 26.220049,56.9315323 C31.7135133,56.9189968 36.1638902,52.2221943 36.175768,46.4245468 C36.1632994,45.524936 36.6991295,44.7183916 37.5047477,44.4241346 C38.1156138,44.1962001 38.7933373,44.2958039 39.3219535,44.6912061 C39.8505697,45.0866083 40.1641272,45.7284774 40.1627119,46.4122743 C40.1544667,54.5421454 33.9117443,61.1305388 26.2084204,61.1392405 Z" id="Shape"></path>
                </g>
                <g id="Semibold-S" transform="translate(1502.010000, 2.000000)">
                    <path d="M25.9513725,0.719611708 C25.578853,0.262895246 25.0347392,0 24.4619935,0 C23.8892477,0 23.3451339,0.262895246 22.9726144,0.719611708 C17.7994118,7.07162909 0.931764706,29.0318037 0.931764706,45.2986632 C0.931764706,60.4573933 10.023268,70 24.4611765,70 C38.899085,70 47.9905882,60.4573933 47.9905882,45.2986632 C47.9905882,29.0318037 31.1229412,7.07162909 25.9513725,0.719611708 Z M26.8578322,61.1392405 C26.2099118,61.1407342 25.6017194,60.8098145 25.2270626,60.2519278 C24.8524059,59.6940411 24.7580279,58.9787908 24.9740035,58.3341 C25.2528218,57.4838732 26.0170495,56.9183732 26.8694607,56.9315323 C32.3629251,56.9189968 36.813302,52.2221943 36.8251798,46.4245468 C36.8127111,45.524936 37.3485412,44.7183916 38.1541595,44.4241346 C38.7650255,44.1962001 39.442749,44.2958039 39.9713653,44.6912061 C40.4999815,45.0866083 40.8135389,45.7284774 40.8121236,46.4122743 C40.8038785,54.5421454 34.561156,61.1305388 26.8578322,61.1392405 Z" id="Shape"></path>
                </g>
                <g id="Medium-S" transform="translate(1206.080000, 2.000000)">
                    <path d="M25.8854902,0.719611708 C25.5129707,0.262895246 24.9688568,0 24.3961111,0 C23.8233654,0 23.2792516,0.262895246 22.906732,0.719611708 C17.7335294,7.07162909 0.865882353,29.0318037 0.865882353,45.2986632 C0.865882353,60.4573933 9.95738562,70 24.3952941,70 C38.8332026,70 47.9247059,60.4573933 47.9247059,45.2986632 C47.9247059,29.0318037 31.0570588,7.07162909 25.8854902,0.719611708 Z M26.7919498,61.1392405 C26.1440295,61.1407342 25.535837,60.8098145 25.1611803,60.2519278 C24.7865235,59.6940411 24.6921456,58.9787908 24.9081211,58.3341 C25.1869395,57.4838732 25.9511671,56.9183732 26.8035784,56.9315323 C32.2970427,56.9189968 36.7474196,52.2221943 36.7592974,46.4245468 C36.7468288,45.524936 37.2826589,44.7183916 38.0882771,44.4241346 C38.6991432,44.1962001 39.3768667,44.2958039 39.9054829,44.6912061 C40.4340991,45.0866083 40.7476566,45.7284774 40.7462413,46.4122743 C40.7379961,54.5421454 34.4952737,61.1305388 26.7919498,61.1392405 Z" id="Shape"></path>
                </g>
                <g id="Regular-S" transform="translate(909.370000, 3.000000)">
                    <path d="M25.612549,0.719611708 C25.2400295,0.262895246 24.6959157,0 24.1231699,0 C23.5504242,0 23.0063104,0.262895246 22.6337908,0.719611708 C17.4605882,7.07162909 0.592941176,29.0318037 0.592941176,45.2986632 C0.592941176,60.4573933 9.68444444,70 24.1223529,70 C38.5602614,70 47.6517647,60.4573933 47.6517647,45.2986632 C47.6517647,29.0318037 30.7841176,7.07162909 25.612549,0.719611708 Z M26.5190086,61.1392405 C25.8710883,61.1407342 25.2628959,60.8098145 24.8882391,60.2519278 C24.5135824,59.6940411 24.4192044,58.9787908 24.6351799,58.3341 C24.9139983,57.4838732 25.678226,56.9183732 26.5306372,56.9315323 C32.0241015,56.9189968 36.4744784,52.2221943 36.4863563,46.4245468 C36.4738876,45.524936 37.0097177,44.7183916 37.8153359,44.4241346 C38.426202,44.1962001 39.1039255,44.2958039 39.6325417,44.6912061 C40.1611579,45.0866083 40.4747154,45.7284774 40.4733001,46.4122743 C40.465055,54.5421454 34.2223325,61.1305388 26.5190086,61.1392405 Z" id="Shape"></path>
                </g>
                <g id="Light-S" transform="translate(612.030000, 3.000000)">
                    <path d="M25.932549,0.719611708 C25.5600295,0.262895246 25.0159157,0 24.4431699,0 C23.8704242,0 23.3263104,0.262895246 22.9537908,0.719611708 C17.7805882,7.07162909 0.912941176,29.0318037 0.912941176,45.2986632 C0.912941176,60.4573933 10.0044444,70 24.4423529,70 C38.8802614,70 47.9717647,60.4573933 47.9717647,45.2986632 C47.9717647,29.0318037 31.1041176,7.07162909 25.932549,0.719611708 Z M26.8390086,61.1392405 C26.1910883,61.1407342 25.5828959,60.8098145 25.2082391,60.2519278 C24.8335824,59.6940411 24.7392044,58.9787908 24.9551799,58.3341 C25.2339983,57.4838732 25.998226,56.9183732 26.8506372,56.9315323 C32.3441015,56.9189968 36.7944784,52.2221943 36.8063563,46.4245468 C36.7938876,45.524936 37.3297177,44.7183916 38.1353359,44.4241346 C38.746202,44.1962001 39.4239255,44.2958039 39.9525417,44.6912061 C40.4811579,45.0866083 40.7947154,45.7284774 40.7933001,46.4122743 C40.785055,54.5421454 34.5423325,61.1305388 26.8390086,61.1392405 Z" id="Shape"></path>
                </g>
                <g id="Thin-S" transform="translate(315.150000, 3.000000)">
                    <path d="M25.8196078,0.719611708 C25.4470883,0.262895246 24.9029745,0 24.3302288,0 C23.757483,0 23.2133692,0.262895246 22.8408497,0.719611708 C17.6676471,7.07162909 0.8,29.0318037 0.8,45.2986632 C0.8,60.4573933 9.89150327,70 24.3294118,70 C38.7673203,70 47.8588235,60.4573933 47.8588235,45.2986632 C47.8588235,29.0318037 30.9911765,7.07162909 25.8196078,0.719611708 Z M26.7260675,61.1392405 C26.0781471,61.1407342 25.4699547,60.8098145 25.0952979,60.2519278 C24.7206412,59.6940411 24.6262632,58.9787908 24.8422388,58.3341 C25.1210571,57.4838732 25.8852848,56.9183732 26.737696,56.9315323 C32.2311604,56.9189968 36.6815373,52.2221943 36.6934151,46.4245468 C36.6809464,45.524936 37.2167765,44.7183916 38.0223948,44.4241346 C38.6332608,44.1962001 39.3109843,44.2958039 39.8396005,44.6912061 C40.3682168,45.0866083 40.6817742,45.7284774 40.6803589,46.4122743 C40.6721138,54.5421454 34.4293913,61.1305388 26.7260675,61.1392405 Z" id="Shape"></path>
                </g>
                <g id="Ultralight-S" transform="translate(19.366000, 4.000000)">
                    <path d="M25.6163137,0.719611708 C25.2437942,0.262895246 24.6996804,0 24.1269346,0 C23.5541889,0 23.0100751,0.262895246 22.6375556,0.719611708 C17.4643529,7.07162909 0.596705882,29.0318037 0.596705882,45.2986632 C0.596705882,60.4573933 9.68820915,70 24.1261176,70 C38.5640261,70 47.6555294,60.4573933 47.6555294,45.2986632 C47.6555294,29.0318037 30.7878824,7.07162909 25.6163137,0.719611708 Z M26.5227733,61.1392405 C25.874853,61.1407342 25.2666606,60.8098145 24.8920038,60.2519278 C24.5173471,59.6940411 24.4229691,58.9787908 24.6389446,58.3341 C24.917763,57.4838732 25.6819907,56.9183732 26.5344019,56.9315323 C32.0278662,56.9189968 36.4782432,52.2221943 36.490121,46.4245468 C36.4776523,45.524936 37.0134824,44.7183916 37.8191006,44.4241346 C38.4299667,44.1962001 39.1076902,44.2958039 39.6363064,44.6912061 C40.1649227,45.0866083 40.4784801,45.7284774 40.4770648,46.4122743 C40.4688197,54.5421454 34.2260972,61.1305388 26.5227733,61.1392405 Z" id="Shape"></path>
                </g>
            </g>
        </g>
    </g>
</svg>